<?xml version="1.0" encoding="UTF-8" standalone="no"?>
<!-- Created with Inkscape (http://www.inkscape.org/) -->

<svg
   xmlns:dc="http://purl.org/dc/elements/1.1/"
   xmlns:cc="http://creativecommons.org/ns#"
   xmlns:rdf="http://www.w3.org/1999/02/22-rdf-syntax-ns#"
   xmlns:svg="http://www.w3.org/2000/svg"
   xmlns="http://www.w3.org/2000/svg"
   xmlns:xlink="http://www.w3.org/1999/xlink"
   xmlns:sodipodi="http://sodipodi.sourceforge.net/DTD/sodipodi-0.dtd"
   xmlns:inkscape="http://www.inkscape.org/namespaces/inkscape"
   width="24"
   height="38"
   id="svg2"
   version="1.1"
   inkscape:version="0.48.2 r9819"
   inkscape:export-filename="notification.png"
   inkscape:export-xdpi="45"
   inkscape:export-ydpi="45"
   sodipodi:docname="notification.svg">
  <defs
     id="defs4">
    <linearGradient
       id="linearGradient3763">
      <stop
         style="stop-color:#828282;stop-opacity:1;"
         offset="0"
         id="stop3765" />
      <stop
         style="stop-color:#919191;stop-opacity:1;"
         offset="1"
         id="stop3767" />
    </linearGradient>
    <linearGradient
       inkscape:collect="always"
       xlink:href="#linearGradient3763"
       id="linearGradient3769"
       x1="12"
       y1="31"
       x2="12"
       y2="7"
       gradientUnits="userSpaceOnUse" />
    <linearGradient
       inkscape:collect="always"
       xlink:href="#linearGradient3763"
       id="linearGradient3803"
       gradientUnits="userSpaceOnUse"
       x1="12"
       y1="31"
       x2="12"
       y2="7" />
    <linearGradient
       inkscape:collect="always"
       xlink:href="#linearGradient3763"
       id="linearGradient3966"
       gradientUnits="userSpaceOnUse"
       x1="12"
       y1="31"
       x2="12"
       y2="7" />
    <linearGradient
       inkscape:collect="always"
       xlink:href="#linearGradient3763"
       id="linearGradient3981"
       gradientUnits="userSpaceOnUse"
       x1="12"
       y1="31"
       x2="12"
       y2="7" />
    <linearGradient
       inkscape:collect="always"
       xlink:href="#linearGradient3763"
       id="linearGradient3992"
       gradientUnits="userSpaceOnUse"
       x1="12"
       y1="31"
       x2="12"
       y2="7" />
  </defs>
  <sodipodi:namedview
     id="base"
     pagecolor="#ffffff"
     bordercolor="#666666"
     borderopacity="1.0"
     inkscape:pageopacity="0.0"
     inkscape:pageshadow="2"
     inkscape:zoom="14.289474"
     inkscape:cx="12"
     inkscape:cy="19"
     inkscape:document-units="px"
     inkscape:current-layer="layer1"
     showgrid="false"
     showguides="true"
     inkscape:guide-bbox="true"
     inkscape:snap-global="true"
     inkscape:window-width="1366"
     inkscape:window-height="723"
     inkscape:window-x="0"
     inkscape:window-y="0"
     inkscape:window-maximized="1">
    <sodipodi:guide
       orientation="0,1"
       position="0,7"
       id="guide2985" />
    <sodipodi:guide
       orientation="0,1"
       position="0,31"
       id="guide2987" />
    <sodipodi:guide
       orientation="1,0"
       position="3,0"
       id="guide2989" />
    <sodipodi:guide
       orientation="1,0"
       position="21,0"
       id="guide2991" />
    <sodipodi:guide
       orientation="1,0"
       position="12,0"
       id="guide3771" />
    <sodipodi:guide
       orientation="1,0"
       position="5,0"
       id="guide3773" />
    <sodipodi:guide
       orientation="1,0"
       position="19,0"
       id="guide3775" />
    <sodipodi:guide
       orientation="0,1"
       position="0,29"
       id="guide3777" />
    <sodipodi:guide
       orientation="0,1"
       position="0,15"
       id="guide3779" />
    <sodipodi:guide
       orientation="1,0"
       position="6,0"
       id="guide3785" />
    <sodipodi:guide
       orientation="1,0"
       position="18,0"
       id="guide3787" />
    <sodipodi:guide
       orientation="0,1"
       position="0,28"
       id="guide3789" />
    <sodipodi:guide
       orientation="0,1"
       position="0,16"
       id="guide3791" />
    <sodipodi:guide
       orientation="0,1"
       position="0,30"
       id="guide3801" />
    <sodipodi:guide
       orientation="1,0"
       position="10,0"
       id="guide3806" />
    <sodipodi:guide
       orientation="1,0"
       position="14,0"
       id="guide3808" />
    <sodipodi:guide
       orientation="0,1"
       position="0,14"
       id="guide3810" />
    <sodipodi:guide
       orientation="0,1"
       position="0,12"
       id="guide3812" />
    <sodipodi:guide
       orientation="0,1"
       position="0,13"
       id="guide3950" />
    <sodipodi:guide
       orientation="1,0"
       position="11,0"
       id="guide3952" />
    <sodipodi:guide
       orientation="1,0"
       position="13,0"
       id="guide3954" />
    <sodipodi:guide
       orientation="1,0"
       position="5.5,0"
       id="guide3969" />
    <sodipodi:guide
       orientation="1,0"
       position="7.5,0"
       id="guide3971" />
    <sodipodi:guide
       orientation="0,1"
       position="0,8.5"
       id="guide3973" />
    <sodipodi:guide
       orientation="0,1"
       position="0,10.5"
       id="guide3975" />
    <sodipodi:guide
       orientation="1,0"
       position="18.5,0"
       id="guide3984" />
    <sodipodi:guide
       orientation="1,0"
       position="16.5,-0.25"
       id="guide3986" />
  </sodipodi:namedview>
  <metadata
     id="metadata7">
    <rdf:RDF>
      <cc:Work
         rdf:about="">
        <dc:format>image/svg+xml</dc:format>
        <dc:type
           rdf:resource="http://purl.org/dc/dcmitype/StillImage" />
        <dc:title></dc:title>
      </cc:Work>
    </rdf:RDF>
  </metadata>
  <g
     inkscape:label="Ebene 1"
     inkscape:groupmode="layer"
     id="layer1">
    <path
       style="fill:url(#linearGradient3992);fill-opacity:1;fill-rule:nonzero"
       d="M 4 7 C 3.446 7 3 7.446 3 8 L 3 30 C 3 30.554 3.446 31 4 31 L 10 31 L 10 26 C 10 24.892 10.892 24 12 24 C 13.108 24 14 24.892 14 26 L 14 31 L 20 31 C 20.554 31 21 30.554 21 30 L 21 8 C 21 7.446 20.554 7 20 7 L 4 7 z M 12 9 C 15.865993 9 19 12.134007 19 16 C 19 19.865993 15.865993 23 12 23 C 8.1340068 23 5 19.865993 5 16 C 5 12.134007 8.1340068 9 12 9 z M 12 10 C 8.6862915 10 6 12.686292 6 16 C 6 19.313708 8.6862915 22 12 22 C 15.313708 22 18 19.313708 18 16 C 18 12.686292 15.313708 10 12 10 z M 12 25 C 11.446 25 11 25.446 11 26 L 11 31 L 13 31 L 13 26 C 13 25.446 12.554 25 12 25 z M 6.5 27.5 C 7.0522847 27.5 7.5 27.947715 7.5 28.5 C 7.5 29.052285 7.0522847 29.5 6.5 29.5 C 5.9477153 29.5 5.5 29.052285 5.5 28.5 C 5.5 27.947715 5.9477153 27.5 6.5 27.5 z M 17.5 27.5 C 18.052285 27.5 18.5 27.947715 18.5 28.5 C 18.5 29.052285 18.052285 29.5 17.5 29.5 C 16.947715 29.5 16.5 29.052285 16.5 28.5 C 16.5 27.947715 16.947715 27.5 17.5 27.5 z "
       id="rect2993" />
  </g>
</svg>
