<?xml version="1.0" encoding="UTF-8" standalone="no"?>
<!-- Created with Inkscape (http://www.inkscape.org/) -->

<svg
   xmlns:dc="http://purl.org/dc/elements/1.1/"
   xmlns:cc="http://creativecommons.org/ns#"
   xmlns:rdf="http://www.w3.org/1999/02/22-rdf-syntax-ns#"
   xmlns:svg="http://www.w3.org/2000/svg"
   xmlns="http://www.w3.org/2000/svg"
   xmlns:xlink="http://www.w3.org/1999/xlink"
   xmlns:sodipodi="http://sodipodi.sourceforge.net/DTD/sodipodi-0.dtd"
   xmlns:inkscape="http://www.inkscape.org/namespaces/inkscape"
   width="48"
   height="48"
   id="svg2"
   version="1.1"
   inkscape:version="0.48.2 r9819"
   inkscape:export-filename="/home/julian/Development/Android/volksempfaenger/notification.png"
   inkscape:export-xdpi="33.75"
   inkscape:export-ydpi="33.75"
   sodipodi:docname="notification-v11.svg">
  <defs
     id="defs4">
    <linearGradient
       id="linearGradient3763">
      <stop
         style="stop-color:#828282;stop-opacity:1;"
         offset="0"
         id="stop3765" />
      <stop
         style="stop-color:#919191;stop-opacity:1;"
         offset="1"
         id="stop3767" />
    </linearGradient>
    <linearGradient
       inkscape:collect="always"
       xlink:href="#linearGradient3763"
       id="linearGradient3769"
       x1="12"
       y1="31"
       x2="12"
       y2="7"
       gradientUnits="userSpaceOnUse" />
    <linearGradient
       inkscape:collect="always"
       xlink:href="#linearGradient3763"
       id="linearGradient3803"
       gradientUnits="userSpaceOnUse"
       x1="12"
       y1="31"
       x2="12"
       y2="7" />
    <linearGradient
       inkscape:collect="always"
       xlink:href="#linearGradient3763"
       id="linearGradient3966"
       gradientUnits="userSpaceOnUse"
       x1="12"
       y1="31"
       x2="12"
       y2="7" />
    <linearGradient
       inkscape:collect="always"
       xlink:href="#linearGradient3763"
       id="linearGradient3981"
       gradientUnits="userSpaceOnUse"
       x1="12"
       y1="31"
       x2="12"
       y2="7" />
  </defs>
  <sodipodi:namedview
     id="base"
     pagecolor="#ffffff"
     bordercolor="#666666"
     borderopacity="1.0"
     inkscape:pageopacity="0.0"
     inkscape:pageshadow="2"
     inkscape:zoom="10.57"
     inkscape:cx="11.999046"
     inkscape:cy="26.56708"
     inkscape:document-units="px"
     inkscape:current-layer="layer1"
     showgrid="false"
     showguides="true"
     inkscape:guide-bbox="true"
     inkscape:snap-global="true"
     inkscape:window-width="1366"
     inkscape:window-height="723"
     inkscape:window-x="0"
     inkscape:window-y="0"
     inkscape:window-maximized="1">
    <sodipodi:guide
       orientation="0,1"
       position="0,2"
       id="guide2985" />
    <sodipodi:guide
       orientation="0,1"
       position="0,46"
       id="guide2987" />
    <sodipodi:guide
       orientation="1,0"
       position="7,0"
       id="guide2989" />
    <sodipodi:guide
       orientation="1,0"
       position="41,0"
       id="guide2991" />
  </sodipodi:namedview>
  <metadata
     id="metadata7">
    <rdf:RDF>
      <cc:Work
         rdf:about="">
        <dc:format>image/svg+xml</dc:format>
        <dc:type
           rdf:resource="http://purl.org/dc/dcmitype/StillImage" />
        <dc:title></dc:title>
      </cc:Work>
    </rdf:RDF>
  </metadata>
  <g
     inkscape:label="Ebene 1"
     inkscape:groupmode="layer"
     id="layer1"
     transform="translate(0,10)">
    <path
       style="fill:#ffffff;fill-opacity:1;fill-rule:nonzero"
       d="M 8.888888,-8 C 7.842444,-8 7,-7.1823334 7,-6.1666666 L 7,34.166666 C 7,35.182334 7.842444,36 8.888888,36 l 11.333333,0 0,-9.166666 c 0,-2.031334 1.68489,-3.666667 3.777778,-3.666667 2.09289,0 3.777778,1.635333 3.777778,3.666667 l 0,9.166666 11.333335,0 C 40.157556,36 41,35.182334 41,34.166666 L 41,-6.1666666 C 41,-7.1823334 40.157556,-8 39.111112,-8 L 8.888888,-8 z m 15.111111,3.6666666 c 7.302432,0 13.222223,5.7456796 13.222223,12.8333334 0,7.087654 -5.919791,12.833333 -13.222223,12.833333 -7.30243,0 -13.222221,-5.745679 -13.222221,-12.833333 0,-7.0876538 5.919791,-12.8333334 13.222221,-12.8333334 z m 0,1.8333334 c -6.259228,0 -11.333333,4.9248686 -11.333333,11 0,6.075131 5.074105,11 11.333333,11 6.259228,0 11.333335,-4.924869 11.333335,-11 0,-6.0751314 -5.074107,-11 -11.333335,-11 z m 0,27.5 c -1.046443,0 -1.888888,0.817666 -1.888888,1.833334 l 0,9.166666 3.777778,0 0,-9.166666 C 25.888889,25.817666 25.046444,25 23.999999,25 z m -10.388888,4.583334 c 1.043205,0 1.888889,0.820809 1.888889,1.833332 0,1.012523 -0.845684,1.833334 -1.888889,1.833334 -1.043206,0 -1.888889,-0.820811 -1.888889,-1.833334 0,-1.012523 0.845683,-1.833332 1.888889,-1.833332 z m 20.777778,0 c 1.043206,0 1.888889,0.820809 1.888889,1.833332 0,1.012523 -0.845683,1.833334 -1.888889,1.833334 C 33.345684,33.25 32.5,32.429189 32.5,31.416666 c 0,-1.012523 0.845684,-1.833332 1.888889,-1.833332 z"
       id="rect2993"
       inkscape:connector-curvature="0" />
  </g>
</svg>
