<?xml version="1.0" encoding="UTF-8" standalone="no"?>
<!-- Created with Inkscape (http://www.inkscape.org/) -->

<svg
   xmlns:dc="http://purl.org/dc/elements/1.1/"
   xmlns:cc="http://creativecommons.org/ns#"
   xmlns:rdf="http://www.w3.org/1999/02/22-rdf-syntax-ns#"
   xmlns:svg="http://www.w3.org/2000/svg"
   xmlns="http://www.w3.org/2000/svg"
   xmlns:sodipodi="http://sodipodi.sourceforge.net/DTD/sodipodi-0.dtd"
   xmlns:inkscape="http://www.inkscape.org/namespaces/inkscape"
   id="svg2"
   version="1.1"
   inkscape:version="0.48.3.1 r9886"
   width="850"
   height="320"
   xml:space="preserve"
   sodipodi:docname="flattr.svg"
   inkscape:export-filename="/home/vincent/Projekte/volksempfaenger/res/drawable-xhdpi/flattr_button.png"
   inkscape:export-xdpi="18"
   inkscape:export-ydpi="18"><metadata
     id="metadata8"><rdf:RDF><cc:Work
         rdf:about=""><dc:format>image/svg+xml</dc:format><dc:type
           rdf:resource="http://purl.org/dc/dcmitype/StillImage" /><dc:title></dc:title></cc:Work></rdf:RDF></metadata><defs
     id="defs6"><clipPath
       clipPathUnits="userSpaceOnUse"
       id="clipPath20"><path
         d="m 0,0 595.28,0 0,841.89 L 0,841.89 0,0 z"
         id="path22"
         inkscape:connector-curvature="0" /></clipPath><clipPath
       clipPathUnits="userSpaceOnUse"
       id="clipPath28"><path
         d="m 0,841.89 595.28,0 L 595.28,0 0,0 0,841.89 z"
         id="path30"
         inkscape:connector-curvature="0" /></clipPath><clipPath
       clipPathUnits="userSpaceOnUse"
       id="clipPath36"><path
         d="m 33.6899,378.021 531.1091,0 0,-193.131 -531.1091,0 0,193.131 z"
         id="path38"
         inkscape:connector-curvature="0" /></clipPath><clipPath
       clipPathUnits="userSpaceOnUse"
       id="clipPath52"><path
         d="m 88.438,384.023 c -30.112,0 -54.748,-24.633 -54.748,-54.744 l 0,0 0,-83.638 c 0,-30.11 24.636,-54.751 54.748,-54.751 l 0,0 421.618,0 c 30.11,0 54.743,24.641 54.743,54.751 l 0,0 0,83.638 c 0,30.111 -24.633,54.744 -54.743,54.744 l 0,0 -421.618,0 z"
         id="path54"
         inkscape:connector-curvature="0" /></clipPath><linearGradient
       x1="0"
       y1="0"
       x2="1"
       y2="0"
       gradientUnits="userSpaceOnUse"
       gradientTransform="matrix(0,-193.13179,193.13179,0,299.375,384)"
       spreadMethod="pad"
       id="linearGradient60"><stop
         style="stop-opacity:1;stop-color:#91c160"
         offset="0"
         id="stop62" /><stop
         style="stop-opacity:1;stop-color:#84af50"
         offset="1"
         id="stop64" /></linearGradient><clipPath
       clipPathUnits="userSpaceOnUse"
       id="clipPath72"><path
         d="m 0,841.89 595.28,0 L 595.28,0 0,0 0,841.89 z"
         id="path74"
         inkscape:connector-curvature="0" /></clipPath><clipPath
       clipPathUnits="userSpaceOnUse"
       id="clipPath92"><path
         d="m 28.8613,802.759 540.7657,0 0,-414.828 -540.7657,0 0,414.828 z"
         id="path94"
         inkscape:connector-curvature="0" /></clipPath><clipPath
       clipPathUnits="userSpaceOnUse"
       id="clipPath112"><path
         d="m 123.077,334.811 c -22.657,0 -34.221,-13.07 -34.221,-37.475 l 0,0 0,-17.05 0,-34.15 22.195,22.254 0,26.007 c 0,10.112 2.675,16.547 11.649,17.988 l 0,0 c 3.133,0.616 9.658,0.4 13.807,0.4 l 0,0 0,-15.441 c 0,-0.141 0.02,-0.393 0.057,-0.524 l 0,0 c 0.173,-0.625 0.736,-1.082 1.405,-1.084 l 0,0 c 0.378,0 0.733,0.197 1.097,0.556 l 0,0 38.465,38.514 -25.817,0.005 -28.637,0 z"
         id="path114"
         inkscape:connector-curvature="0" /></clipPath><clipPath
       clipPathUnits="userSpaceOnUse"
       id="clipPath122"><path
         d="m 0,841.89 595.28,0 L 595.28,0 0,0 0,841.89 z"
         id="path124"
         inkscape:connector-curvature="0" /></clipPath><clipPath
       clipPathUnits="userSpaceOnUse"
       id="clipPath134"><path
         d="m 162.54,302.521 0,-26.009 c 0,-10.112 -2.671,-16.546 -11.648,-17.991 l 0,0 c -3.133,-0.612 -9.658,-0.398 -13.809,-0.398 l 0,0 0,15.444 c 0,0.141 -0.018,0.392 -0.054,0.522 l 0,0 c -0.172,0.622 -0.733,1.082 -1.407,1.084 l 0,0 c -0.375,0 -0.727,-0.2 -1.099,-0.556 l 0,0 -38.462,-38.513 25.819,-0.004 28.638,0 c 22.658,0 34.22,13.068 34.22,37.472 l 0,0 0,17.047 0,34.154 -22.198,-22.252 z"
         id="path136"
         inkscape:connector-curvature="0" /></clipPath><clipPath
       clipPathUnits="userSpaceOnUse"
       id="clipPath144"><path
         d="m 0,841.89 595.28,0 L 595.28,0 0,0 0,841.89 z"
         id="path146"
         inkscape:connector-curvature="0" /></clipPath><clipPath
       clipPathUnits="userSpaceOnUse"
       id="clipPath152"><path
         d="m 215.805,342.554 302.139,0 0,-108.322 -302.139,0 0,108.322 z"
         id="path154"
         inkscape:connector-curvature="0" /></clipPath><clipPath
       clipPathUnits="userSpaceOnUse"
       id="clipPath224"><path
         d="m 0,841.89 595.28,0 L 595.28,0 0,0 0,841.89 z"
         id="path226"
         inkscape:connector-curvature="0" /></clipPath><clipPath
       clipPathUnits="userSpaceOnUse"
       id="clipPath252"><path
         d="m 0,841.89 595.28,0 L 595.28,0 0,0 0,841.89 z"
         id="path254"
         inkscape:connector-curvature="0" /></clipPath></defs><sodipodi:namedview
     pagecolor="#ffffff"
     bordercolor="#666666"
     borderopacity="1"
     objecttolerance="10"
     gridtolerance="10"
     guidetolerance="10"
     inkscape:pageopacity="0"
     inkscape:pageshadow="2"
     inkscape:window-width="1366"
     inkscape:window-height="714"
     id="namedview4"
     showgrid="false"
     fit-margin-top="0"
     fit-margin-left="0"
     fit-margin-right="0"
     fit-margin-bottom="0"
     inkscape:zoom="0.44851464"
     inkscape:cx="941.33386"
     inkscape:cy="261.03654"
     inkscape:window-x="0"
     inkscape:window-y="27"
     inkscape:window-maximized="1"
     inkscape:current-layer="g10" /><g
     id="g10"
     inkscape:groupmode="layer"
     inkscape:label="doc"
     transform="matrix(1.25,0,0,-1.25,0,368.56777)"><path
       inkscape:connector-curvature="0"
       id="path106"
       style="fill:#ffffff;fill-opacity:0.8;fill-rule:nonzero;stroke:none"
       d="M 91.366299,294.85422 C 30.875508,294.85422 0,260.96069 0,197.66548 l 0,-44.21538 0,-88.568178 59.259936,57.714168 0,67.44989 c 0,26.22216 7.139494,42.91088 31.099785,46.648 8.365009,1.59756 25.789219,1.03997 36.864249,1.03997 l 0,-40.04772 c 0,-0.3631 0.0561,-1.01923 0.15218,-1.35638 0.46458,-1.62088 1.96777,-2.80608 3.75399,-2.81386 1.00657,0 1.9544,0.51091 2.92895,1.44195 l 102.70031,99.8859 -68.93323,0.0102 -76.459871,0 z"
       inkscape:export-filename="/home/vincent/Projekte/volksempfaenger/artwork/flattr/g4733.png"
       inkscape:export-xdpi="17.981749"
       inkscape:export-ydpi="17.981749" /><path
       inkscape:connector-curvature="0"
       id="path128"
       style="fill:#ffffff;fill-opacity:0.8;fill-rule:nonzero;stroke:none"
       d="m 196.73204,211.11499 0,-67.45507 c 0,-26.22216 -7.13148,-42.91088 -31.09978,-46.655789 C 157.26725,95.416952 139.8457,95.971946 128.76,95.971946 l 0,40.050324 c 0,0.36826 -0.0454,1.01662 -0.14418,1.35377 -0.45924,1.6157 -1.95442,2.80608 -3.75398,2.81128 -1.00124,0 -1.94374,-0.5161 -2.93429,-1.43935 L 19.235249,38.867238 l 68.93323,-0.01302 76.465211,0 C 225.12981,38.854218 256,72.745144 256,136.03776 l 0,44.21018 0,88.57597 -59.26796,-57.70897 z"
       inkscape:export-filename="/home/vincent/Projekte/volksempfaenger/artwork/flattr/g4733.png"
       inkscape:export-xdpi="17.981749"
       inkscape:export-ydpi="17.981749" /><g
       id="g4733"
       transform="matrix(0.67221174,0,0,0.67221174,168.74124,80.81114)"
       inkscape:export-xdpi="17.981749"
       inkscape:export-ydpi="17.981749"><path
         d="m 225.01654,212.67628 92.9114,0 -3.3465,-17.50175 -68.20262,0 0,-57.13685 56.62104,0 0,-17.24474 -56.62104,0 0,-83.903513 -21.36228,0 0,175.786853 z"
         style="fill:#ffffff;fill-opacity:0.8;fill-rule:nonzero;stroke:none"
         id="path186"
         inkscape:connector-curvature="0" /><path
         d="m 335.1484,219.88242 20.84648,4.11754 c 3.3465,-9.77894 3.08772,-24.19298 3.08772,-39.63508 l 0,-121.737728 c 0,-10.037722 1.54562,-12.868419 7.20702,-12.868419 0.77281,0 2.57368,0.5158 2.57368,0.5158 l 4.11932,-13.127206 c -5.14914,-2.314897 -7.46404,-2.830697 -12.8702,-2.830697 -6.43243,0 -11.32279,1.800869 -15.18331,5.404381 -4.63334,4.119312 -6.1772,9.007893 -6.1772,18.272801 l 0,126.371068 c 0,19.30262 -0.5158,26.50965 -3.60351,35.51754"
         style="fill:#ffffff;fill-opacity:0.8;fill-rule:nonzero;stroke:none"
         id="path190"
         inkscape:connector-curvature="0" /><path
         d="m 468.46132,102.00522 c -4.37455,0.25879 -6.43421,0.51403 -10.03772,0.51403 -19.55964,0 -30.36841,-3.601739 -36.80439,-10.294735 -4.89035,-5.147367 -7.20525,-11.581577 -7.20525,-20.332456 0,-15.185089 7.46404,-23.420169 22.13333,-23.420169 13.12543,0 25.22458,7.978066 31.14122,20.075443 l 0.77281,33.457887 z m -71.80613,49.15701 c 16.98596,11.32456 35.26053,17.24474 53.79034,17.24474 17.75701,0 30.11317,-6.94823 35.51755,-20.07367 2.31667,-5.66316 2.83247,-10.03772 2.83247,-21.87808 l 0,-6.43421 -1.02983,-42.20877 c -0.25878,-1.800869 -0.25878,-3.860525 -0.25878,-5.920181 0,-15.699117 2.31667,-21.362285 10.55175,-25.479825 L 487.76572,31.99996 c -8.75265,2.83247 -15.18686,9.778935 -17.50176,18.786828 -12.35439,-12.352619 -22.39211,-17.242972 -37.06317,-17.242972 -16.21314,0 -24.19298,4.117539 -30.88421,10.296507 -7.20525,6.689451 -10.29473,18.015787 -10.29473,26.250866 0,29.081563 24.9658,46.069291 67.94561,46.069291 3.08948,0 4.63334,0 9.00789,-0.25701 l 0,9.00789 c 0,11.32457 -0.51403,15.95791 -4.11577,20.07545 -4.11931,4.63156 -9.26668,6.94823 -17.24474,6.94823 -7.46404,0 -15.18509,-1.54385 -24.70701,-5.66139 -7.72283,-3.08949 -10.29651,-4.89036 -16.21669,-9.52192 l -10.03595,14.4105 z"
         style="fill:#ffffff;fill-opacity:0.8;fill-rule:nonzero;stroke:none"
         id="path194"
         inkscape:connector-curvature="0" /><path
         d="m 586.07358,165.31891 -6.17542,-15.69912 -27.02545,0 0,-82.359653 c 0,-14.157034 3.86052,-19.045615 16.47193,-19.045615 5.66317,0 9.26491,0.771042 12.86842,2.573684 l 2.8307,-12.868419 c -6.43421,-3.346498 -13.63946,-5.147368 -22.64736,-5.147368 -6.69299,0 -11.84036,1.28507 -16.73077,3.603512 -9.00789,4.374554 -12.35439,12.609633 -12.35439,25.479824 l 0,87.764035 -16.72717,0 0,15.69912 16.72717,0 0,1.54385 c 0,6.43421 0.5158,13.64124 1.80264,26.76844 l 0.25879,3.34473 20.84476,4.63334 c 0,0 -2.57191,-19.3044 -2.57191,-36.29036 l 32.42806,0 z"
         style="fill:#ffffff;fill-opacity:0.8;fill-rule:nonzero;stroke:none"
         id="path198"
         inkscape:connector-curvature="0" /><path
         d="m 668.94195,165.31891 -6.17543,-15.69912 -27.02545,0 0,-82.359653 c 0,-14.157034 3.86053,-19.045615 16.47193,-19.045615 5.66317,0 9.26491,0.771042 12.86842,2.573684 l 2.8307,-12.868419 c -6.43421,-3.346498 -13.63946,-5.147368 -22.64735,-5.147368 -6.693,0 -11.84037,1.28507 -16.73072,3.603512 -9.00789,4.374554 -12.35439,12.609633 -12.35439,25.479824 l 0,87.764035 -16.72717,0 0,15.69912 16.72717,0 0,1.54385 c 0,6.43421 0.5158,13.64124 1.80264,26.76844 l 0.25879,3.34473 20.84471,4.63334 c 0,0 -2.57191,-19.3044 -2.57191,-36.29036 l 32.42806,0 z"
         style="fill:#ffffff;fill-opacity:0.8;fill-rule:nonzero;stroke:none"
         id="path202"
         inkscape:connector-curvature="0" /><path
         d="m 693.12873,163.00277 20.07544,5.40438 c 3.08771,-6.693 4.37632,-10.55175 4.37632,-19.04561 l 0,-1.80087 c 9.26314,13.12543 22.90615,21.36228 36.03158,21.36228 3.3465,0 6.95001,-1.28861 6.95001,-1.28861 l -8.23685,-21.87632 c -2.57369,0.77282 -3.34473,1.0316 -5.66317,1.0316 -7.71928,0 -15.4421,-3.34649 -21.36229,-9.26667 -5.91663,-5.92019 -7.46403,-9.78071 -7.46403,-20.33246 l 0,-80.299999 -20.07367,0 0,97.799989 c 0,14.67106 -1.02983,20.07721 -4.63334,28.31229"
         style="fill:#ffffff;fill-opacity:0.8;fill-rule:nonzero;stroke:none"
         id="path206"
         inkscape:connector-curvature="0" /></g></g></svg>